<svg width="112" height="27" viewBox="0 0 112 27" fill="none" xmlns="http://www.w3.org/2000/svg">
<path d="M0.548828 25.7241V8.07568H25.7734V25.7241H21.6777V11.978H15.1914V25.7241H11.1309V11.978H4.64453V25.7241H0.548828Z" fill="white"/>
<path d="M29.6602 20.1167C29.6602 18.4292 30.252 17.0698 31.4355 16.0386C32.6309 15.0073 34.1719 14.4917 36.0586 14.4917H40.1016V11.6792H31.207V8.07568H44.127V25.7241H36.0586C34.1016 25.7241 32.543 25.2144 31.3828 24.1948C30.2344 23.1753 29.6602 21.8159 29.6602 20.1167ZM34.0547 18.5522C33.5977 18.8921 33.3691 19.4136 33.3691 20.1167C33.3691 20.8198 33.5977 21.3413 34.0547 21.6812C34.5234 22.021 35.168 22.1909 35.9883 22.1909H40.1016V18.0249H35.9883C35.168 18.0249 34.5234 18.2007 34.0547 18.5522Z" fill="white"/>
<path d="M48.6992 25.7241V8.07568H58.4902V11.978H52.8125V25.7241H48.6992Z" fill="white"/>
<path d="M61.2344 25.7241V0.481934H65.3477V14.9312H67.9668L71.6055 8.07568H75.9648L71.3242 16.8999L76.2812 25.7241H71.9395L67.9316 18.8159H65.3477V25.7241H61.2344Z" fill="white"/>
<path d="M78.3398 25.7241V0.481934H82.4531V14.9312H85.0723L88.7109 8.07568H93.0703L88.4297 16.8999L93.3867 25.7241H89.0449L85.0371 18.8159H82.4531V25.7241H78.3398Z" fill="white"/>
<path d="M94.5137 21.6284C93.7168 20.2104 93.3184 18.6343 93.3184 16.8999C93.3184 15.1655 93.7168 13.5894 94.5137 12.1714C95.3223 10.7534 96.418 9.646 97.8008 8.84912C99.1953 8.05225 100.736 7.65381 102.424 7.65381C104.979 7.65381 107.135 8.53857 108.893 10.3081C110.65 12.0776 111.529 14.2749 111.529 16.8999C111.529 19.5249 110.65 21.7222 108.893 23.4917C107.135 25.2495 104.979 26.1284 102.424 26.1284C100.736 26.1284 99.1953 25.73 97.8008 24.9331C96.418 24.1362 95.3223 23.0347 94.5137 21.6284ZM98.873 12.9448C97.959 13.9761 97.502 15.2944 97.502 16.8999C97.502 18.5054 97.959 19.8296 98.873 20.8726C99.7988 21.9038 100.982 22.4194 102.424 22.4194C103.842 22.4194 105.014 21.9038 105.939 20.8726C106.865 19.8296 107.328 18.5054 107.328 16.8999C107.328 15.3062 106.865 13.9937 105.939 12.9624C105.025 11.9194 103.854 11.3979 102.424 11.3979C100.982 11.3979 99.7988 11.9136 98.873 12.9448Z" fill="white"/>
</svg>
