<svg width="112" height="26" viewBox="0 0 112 26" fill="none" xmlns="http://www.w3.org/2000/svg">
<path d="M0.548828 25.2422V7.59375H25.7734V25.2422H21.6777V11.4961H15.1914V25.2422H11.1309V11.4961H4.64453V25.2422H0.548828Z" fill="#4F46E5"/>
<path d="M29.6602 19.6348C29.6602 17.9473 30.252 16.5879 31.4355 15.5566C32.6309 14.5254 34.1719 14.0098 36.0586 14.0098H40.1016V11.1973H31.207V7.59375H44.127V25.2422H36.0586C34.1016 25.2422 32.543 24.7324 31.3828 23.7129C30.2344 22.6934 29.6602 21.334 29.6602 19.6348ZM34.0547 18.0703C33.5977 18.4102 33.3691 18.9316 33.3691 19.6348C33.3691 20.3379 33.5977 20.8594 34.0547 21.1992C34.5234 21.5391 35.168 21.709 35.9883 21.709H40.1016V17.543H35.9883C35.168 17.543 34.5234 17.7188 34.0547 18.0703Z" fill="#4F46E5"/>
<path d="M48.6992 25.2422V7.59375H58.4902V11.4961H52.8125V25.2422H48.6992Z" fill="#4F46E5"/>
<path d="M61.2344 25.2422V0H65.3477V14.4492H67.9668L71.6055 7.59375H75.9648L71.3242 16.418L76.2812 25.2422H71.9395L67.9316 18.334H65.3477V25.2422H61.2344Z" fill="#4F46E5"/>
<path d="M78.3398 25.2422V0H82.4531V14.4492H85.0723L88.7109 7.59375H93.0703L88.4297 16.418L93.3867 25.2422H89.0449L85.0371 18.334H82.4531V25.2422H78.3398Z" fill="#4F46E5"/>
<path d="M94.5137 21.1465C93.7168 19.7285 93.3184 18.1523 93.3184 16.418C93.3184 14.6836 93.7168 13.1074 94.5137 11.6895C95.3223 10.2715 96.418 9.16406 97.8008 8.36719C99.1953 7.57031 100.736 7.17188 102.424 7.17188C104.979 7.17188 107.135 8.05664 108.893 9.82617C110.65 11.5957 111.529 13.793 111.529 16.418C111.529 19.043 110.65 21.2402 108.893 23.0098C107.135 24.7676 104.979 25.6465 102.424 25.6465C100.736 25.6465 99.1953 25.248 97.8008 24.4512C96.418 23.6543 95.3223 22.5527 94.5137 21.1465ZM98.873 12.4629C97.959 13.4941 97.502 14.8125 97.502 16.418C97.502 18.0234 97.959 19.3477 98.873 20.3906C99.7988 21.4219 100.982 21.9375 102.424 21.9375C103.842 21.9375 105.014 21.4219 105.939 20.3906C106.865 19.3477 107.328 18.0234 107.328 16.418C107.328 14.8242 106.865 13.5117 105.939 12.4805C105.025 11.4375 103.854 10.916 102.424 10.916C100.982 10.916 99.7988 11.4316 98.873 12.4629Z" fill="#4F46E5"/>
</svg>
